<svg width="50" height="50" viewBox="0 0 50 50" fill="none" xmlns="http://www.w3.org/2000/svg">
<path d="M21.4366 8.04087L3.79079 37.4992C3.42698 38.1293 3.23448 38.8436 3.23244 39.5711C3.2304 40.2987 3.4189 41.0141 3.77918 41.6461C4.13947 42.2782 4.65897 42.8049 5.28602 43.1739C5.91307 43.5429 6.62579 43.7412 7.35329 43.7492H42.645C43.3725 43.7412 44.0852 43.5429 44.7122 43.1739C45.3393 42.8049 45.8588 42.2782 46.2191 41.6461C46.5794 41.0141 46.7679 40.2987 46.7658 39.5711C46.7638 38.8436 46.5713 38.1293 46.2075 37.4992L28.5616 8.04087C28.1902 7.42859 27.6673 6.92237 27.0433 6.57105C26.4193 6.21972 25.7152 6.03516 24.9991 6.03516C24.283 6.03516 23.579 6.21972 22.955 6.57105C22.331 6.92237 21.808 7.42859 21.4366 8.04087V8.04087Z" stroke="current" stroke-width="4" stroke-linecap="round" stroke-linejoin="round"/>
<path d="M25 18.75V27.0833" stroke="current" stroke-width="4" stroke-linecap="round" stroke-linejoin="round"/>
<path d="M25 35.416H25.0208" stroke="current" stroke-width="4" stroke-linecap="round" stroke-linejoin="round"/>
</svg>
