<svg width="1269" height="460" viewBox="0 0 1269 460" fill="none" xmlns="http://www.w3.org/2000/svg">
<path d="M1234.47 163.138C1234.96 163.138 1235.44 163.27 1235.85 163.517C1236.25 163.765 1236.57 164.116 1236.76 164.527C1236.94 164.938 1236.99 165.391 1236.9 165.827C1236.8 166.264 1236.57 166.665 1236.22 166.98C1235.88 167.294 1235.43 167.509 1234.96 167.595C1234.48 167.682 1233.98 167.638 1233.53 167.467C1233.07 167.297 1232.69 167.009 1232.42 166.639C1232.14 166.268 1232 165.833 1232 165.388C1232 164.792 1232.26 164.219 1232.72 163.797C1233.19 163.375 1233.82 163.138 1234.47 163.138Z" fill="white"/>
<path d="M1234.47 150.597C1234.96 150.597 1235.44 150.729 1235.85 150.976C1236.25 151.224 1236.57 151.575 1236.76 151.986C1236.94 152.397 1236.99 152.85 1236.9 153.286C1236.8 153.723 1236.57 154.124 1236.22 154.439C1235.88 154.753 1235.43 154.968 1234.96 155.054C1234.48 155.141 1233.98 155.097 1233.53 154.926C1233.07 154.756 1232.69 154.468 1232.42 154.098C1232.15 153.728 1232 153.293 1232 152.847C1232 152.552 1232.06 152.259 1232.19 151.986C1232.31 151.713 1232.49 151.465 1232.72 151.256C1232.95 151.047 1233.23 150.882 1233.53 150.768C1233.83 150.655 1234.15 150.597 1234.47 150.597Z" fill="white"/>
<path d="M1234.47 138.056C1234.96 138.056 1235.44 138.188 1235.85 138.435C1236.25 138.682 1236.57 139.034 1236.76 139.445C1236.94 139.856 1236.99 140.309 1236.9 140.745C1236.8 141.182 1236.57 141.583 1236.22 141.897C1235.88 142.212 1235.44 142.427 1234.96 142.513C1234.48 142.6 1233.98 142.556 1233.53 142.385C1233.07 142.215 1232.69 141.927 1232.42 141.557C1232.15 141.186 1232 140.751 1232 140.306C1232 139.709 1232.26 139.137 1232.72 138.715C1233.19 138.293 1233.82 138.056 1234.47 138.056Z" fill="white"/>
<path d="M1234.47 125.513C1234.96 125.513 1235.44 125.645 1235.85 125.892C1236.25 126.14 1236.57 126.491 1236.76 126.902C1236.94 127.313 1236.99 127.766 1236.9 128.202C1236.8 128.639 1236.57 129.04 1236.22 129.355C1235.88 129.669 1235.43 129.884 1234.96 129.97C1234.48 130.057 1233.98 130.013 1233.53 129.842C1233.07 129.672 1232.69 129.384 1232.42 129.014C1232.14 128.643 1232 128.208 1232 127.763C1232 127.166 1232.26 126.594 1232.72 126.172C1233.19 125.75 1233.82 125.513 1234.47 125.513Z" fill="white"/>
<path d="M1234.47 112.972C1234.96 112.972 1235.44 113.104 1235.85 113.351C1236.25 113.599 1236.57 113.95 1236.76 114.361C1236.94 114.772 1236.99 115.225 1236.9 115.661C1236.8 116.098 1236.57 116.499 1236.22 116.814C1235.88 117.128 1235.43 117.343 1234.96 117.429C1234.48 117.516 1233.98 117.472 1233.53 117.301C1233.07 117.131 1232.69 116.843 1232.42 116.473C1232.15 116.103 1232 115.668 1232 115.222C1232 114.927 1232.06 114.634 1232.19 114.361C1232.31 114.088 1232.49 113.84 1232.72 113.631C1232.95 113.422 1233.23 113.256 1233.53 113.143C1233.83 113.03 1234.15 112.972 1234.47 112.972Z" fill="white"/>
<path d="M1234.47 100.433C1234.96 100.433 1235.44 100.565 1235.85 100.812C1236.25 101.059 1236.57 101.411 1236.76 101.822C1236.94 102.233 1236.99 102.686 1236.9 103.122C1236.8 103.559 1236.57 103.96 1236.22 104.274C1235.88 104.589 1235.44 104.803 1234.96 104.89C1234.48 104.977 1233.98 104.933 1233.53 104.762C1233.07 104.592 1232.69 104.304 1232.42 103.933C1232.15 103.563 1232 103.128 1232 102.683C1232 102.086 1232.26 101.514 1232.72 101.092C1233.19 100.67 1233.82 100.433 1234.47 100.433Z" fill="white"/>
<path d="M1234.47 87.892C1234.96 87.892 1235.44 88.0239 1235.85 88.2712C1236.25 88.5184 1236.57 88.8699 1236.76 89.2811C1236.94 89.6923 1236.99 90.1447 1236.9 90.5813C1236.8 91.0178 1236.57 91.4188 1236.22 91.7335C1235.88 92.0482 1235.43 92.2625 1234.96 92.3493C1234.48 92.4362 1233.98 92.3916 1233.53 92.2213C1233.07 92.0509 1232.69 91.7625 1232.42 91.3924C1232.14 91.0224 1232 90.5873 1232 90.1422C1232 89.5454 1232.26 88.9731 1232.72 88.5511C1233.19 88.1291 1233.82 87.892 1234.47 87.892Z" fill="white"/>
<path d="M1234.47 75.351C1234.96 75.3509 1235.44 75.4829 1235.85 75.7302C1236.25 75.9774 1236.57 76.3288 1236.76 76.74C1236.94 77.1512 1236.99 77.6036 1236.9 78.0401C1236.8 78.4767 1236.57 78.8777 1236.22 79.1924C1235.88 79.5071 1235.44 79.7215 1234.96 79.8083C1234.48 79.8952 1233.98 79.8506 1233.53 79.6803C1233.07 79.51 1232.69 79.2216 1232.42 78.8515C1232.15 78.4815 1232 78.0464 1232 77.6013C1232 77.0045 1232.26 76.4322 1232.72 76.0102C1233.19 75.5881 1233.82 75.351 1234.47 75.351Z" fill="white"/>
<path d="M1234.47 62.8098C1234.96 62.8098 1235.44 62.9417 1235.85 63.189C1236.25 63.4363 1236.57 63.7877 1236.76 64.1989C1236.94 64.6101 1236.99 65.0626 1236.9 65.4991C1236.8 65.9357 1236.57 66.3367 1236.22 66.6514C1235.88 66.9661 1235.44 67.1805 1234.96 67.2673C1234.48 67.3541 1233.98 67.3096 1233.53 67.1393C1233.07 66.9689 1232.69 66.6805 1232.42 66.3104C1232.15 65.9403 1232 65.5052 1232 65.0602C1232 64.4633 1232.26 63.891 1232.72 63.469C1233.19 63.0469 1233.82 62.8098 1234.47 62.8098Z" fill="white"/>
<path d="M1234.47 50.267C1234.96 50.2669 1235.44 50.3989 1235.85 50.6462C1236.25 50.8934 1236.57 51.2449 1236.76 51.6561C1236.94 52.0673 1236.99 52.5197 1236.9 52.9563C1236.8 53.3928 1236.57 53.7938 1236.22 54.1085C1235.88 54.4232 1235.43 54.6375 1234.96 54.7243C1234.48 54.8112 1233.98 54.7666 1233.53 54.5963C1233.07 54.4259 1232.69 54.1375 1232.42 53.7674C1232.14 53.3974 1232 52.9623 1232 52.5172C1232 51.9204 1232.26 51.348 1232.72 50.9261C1233.19 50.5041 1233.82 50.267 1234.47 50.267Z" fill="white"/>
<path d="M1247.53 112.972C1248.02 112.972 1248.49 113.104 1248.9 113.351C1249.31 113.599 1249.62 113.95 1249.81 114.361C1250 114.772 1250.05 115.225 1249.95 115.661C1249.86 116.098 1249.62 116.499 1249.28 116.814C1248.93 117.128 1248.49 117.343 1248.01 117.429C1247.53 117.516 1247.03 117.472 1246.58 117.301C1246.13 117.131 1245.74 116.843 1245.47 116.473C1245.2 116.103 1245.05 115.667 1245.05 115.222C1245.05 114.626 1245.32 114.053 1245.78 113.631C1246.24 113.209 1246.87 112.972 1247.53 112.972Z" fill="white"/>
<path d="M1250 102.683C1250 101.44 1248.89 100.433 1247.53 100.433C1246.16 100.433 1245.05 101.44 1245.05 102.683C1245.05 103.926 1246.16 104.934 1247.53 104.934C1248.89 104.934 1250 103.926 1250 102.683Z" fill="white"/>
<path d="M1247.53 87.892C1248.02 87.892 1248.49 88.024 1248.9 88.2713C1249.31 88.5186 1249.62 88.87 1249.81 89.2812C1250 89.6924 1250.05 90.1448 1249.95 90.5814C1249.86 91.0179 1249.62 91.4188 1249.28 91.7335C1248.93 92.0482 1248.49 92.2625 1248.01 92.3494C1247.53 92.4362 1247.03 92.3916 1246.58 92.2213C1246.13 92.0509 1245.74 91.7625 1245.47 91.3924C1245.2 91.0224 1245.05 90.5873 1245.05 90.1422C1245.05 89.5454 1245.32 88.973 1245.78 88.5511C1246.24 88.1291 1246.87 87.892 1247.53 87.892Z" fill="white"/>
<path d="M1247.53 75.351C1248.02 75.351 1248.49 75.483 1248.9 75.7303C1249.31 75.9775 1249.62 76.329 1249.81 76.7402C1250 77.1514 1250.05 77.6038 1249.95 78.0403C1249.86 78.4768 1249.62 78.8778 1249.28 79.1925C1248.93 79.5072 1248.49 79.7215 1248.01 79.8083C1247.53 79.8952 1247.03 79.8506 1246.58 79.6803C1246.13 79.51 1245.74 79.2216 1245.47 78.8515C1245.2 78.4815 1245.05 78.0464 1245.05 77.6014C1245.05 77.3058 1245.12 77.0132 1245.24 76.7402C1245.37 76.4671 1245.55 76.219 1245.78 76.0101C1246.01 75.8011 1246.28 75.6354 1246.58 75.5223C1246.88 75.4092 1247.2 75.351 1247.53 75.351Z" fill="white"/>
<path d="M1250 65.0602C1250 63.8174 1248.89 62.8099 1247.53 62.8099C1246.16 62.8099 1245.05 63.8174 1245.05 65.0602C1245.05 66.303 1246.16 67.3105 1247.53 67.3105C1248.89 67.3105 1250 66.303 1250 65.0602Z" fill="white"/>
<path d="M1247.53 50.267C1248.02 50.267 1248.49 50.399 1248.9 50.6462C1249.31 50.8935 1249.62 51.245 1249.81 51.6562C1250 52.0674 1250.05 52.5198 1249.95 52.9564C1249.86 53.3929 1249.62 53.7938 1249.28 54.1085C1248.93 54.4232 1248.49 54.6375 1248.01 54.7244C1247.53 54.8112 1247.03 54.7666 1246.58 54.5963C1246.13 54.4259 1245.74 54.1375 1245.47 53.7674C1245.2 53.3973 1245.05 52.9623 1245.05 52.5172C1245.05 51.9204 1245.32 51.348 1245.78 50.9261C1246.24 50.5041 1246.87 50.2669 1247.53 50.267Z" fill="white"/>
<path d="M1247.53 37.7259C1248.02 37.7259 1248.49 37.8579 1248.9 38.1052C1249.31 38.3525 1249.63 38.7039 1249.81 39.1151C1250 39.5263 1250.05 39.9788 1249.95 40.4153C1249.86 40.8518 1249.62 41.2527 1249.28 41.5675C1248.93 41.8822 1248.49 42.0965 1248.01 42.1833C1247.53 42.2702 1247.03 42.2256 1246.58 42.0553C1246.13 41.885 1245.74 41.5966 1245.47 41.2265C1245.2 40.8565 1245.05 40.4214 1245.05 39.9763C1245.05 39.3795 1245.32 38.8071 1245.78 38.3851C1246.24 37.9631 1246.87 37.7259 1247.53 37.7259Z" fill="white"/>
<path d="M1247.53 25.1848C1248.02 25.1848 1248.49 25.3168 1248.9 25.5641C1249.31 25.8113 1249.62 26.1628 1249.81 26.574C1250 26.9852 1250.05 27.4377 1249.95 27.8742C1249.86 28.3108 1249.62 28.7117 1249.28 29.0264C1248.93 29.3412 1248.49 29.5555 1248.01 29.6423C1247.53 29.7291 1247.03 29.6846 1246.58 29.5142C1246.13 29.3439 1245.74 29.0555 1245.47 28.6854C1245.2 28.3153 1245.05 27.8802 1245.05 27.4352C1245.05 26.8383 1245.32 26.2659 1245.78 25.8439C1246.24 25.4219 1246.87 25.1848 1247.53 25.1848Z" fill="white"/>
<path d="M1247.53 12.644C1248.02 12.644 1248.49 12.776 1248.9 13.0232C1249.31 13.2705 1249.62 13.622 1249.81 14.0332C1250 14.4443 1250.05 14.8968 1249.95 15.3333C1249.86 15.7698 1249.62 16.1707 1249.28 16.4854C1248.93 16.8001 1248.49 17.0145 1248.01 17.1013C1247.53 17.1881 1247.03 17.1435 1246.58 16.9732C1246.13 16.8029 1245.74 16.5145 1245.47 16.1444C1245.2 15.7743 1245.05 15.3393 1245.05 14.8942C1245.05 14.2974 1245.32 13.725 1245.78 13.303C1246.24 12.881 1246.87 12.644 1247.53 12.644Z" fill="white"/>
<path d="M1247.53 0.100944C1248.02 0.100955 1248.49 0.232908 1248.9 0.480178C1249.31 0.727448 1249.62 1.07895 1249.81 1.49014C1250 1.90132 1250.05 2.35375 1249.95 2.79025C1249.86 3.22676 1249.62 3.62776 1249.28 3.94247C1248.93 4.25717 1248.49 4.4715 1248.01 4.55833C1247.53 4.64516 1247.03 4.60055 1246.58 4.43024C1246.13 4.25993 1245.74 3.97152 1245.47 3.60147C1245.2 3.23142 1245.05 2.79638 1245.05 2.35132C1245.05 1.75449 1245.32 1.18211 1245.78 0.760085C1246.24 0.338062 1246.87 0.100944 1247.53 0.100944Z" fill="white"/>
<path d="M44.3333 71.992C44.1582 71.992 43.9848 71.9624 43.823 71.9047C43.6613 71.8471 43.5142 71.7625 43.3904 71.656C43.2666 71.5495 43.1684 71.423 43.1014 71.2838C43.0344 71.1446 43 70.9954 43 70.8447C43 68.5631 44.7773 67.4271 46.2044 66.514C47.5638 65.6452 48.3333 65.1007 48.3333 64.0252C48.3333 62.9496 47.5638 62.4057 46.2044 61.5369C44.7773 60.6238 43 59.4877 43 57.2061C43 54.924 44.7773 53.7879 46.2044 52.8749C47.5638 52.0055 48.3333 51.4615 48.3333 50.3854C48.3333 49.3105 47.5638 48.7665 46.2044 47.8977C44.7773 46.9852 43 45.8491 43 43.5681C43 41.2854 44.7773 40.1488 46.2044 39.2351C47.5638 38.3658 48.3333 37.8213 48.3333 36.7446C48.3333 35.6668 47.5638 35.1218 46.2044 34.2513C44.7773 33.3376 43 32.2005 43 29.9166C43 27.6334 44.776 26.4962 46.2044 25.5825C47.5638 24.712 48.3333 24.167 48.3333 23.0886C48.3333 22.7844 48.4738 22.4925 48.7239 22.2774C48.9739 22.0622 49.313 21.9414 49.6667 21.9414C50.0203 21.9414 50.3594 22.0622 50.6095 22.2774C50.8595 22.4925 51 22.7844 51 23.0886C51 25.3725 49.2227 26.5096 47.7956 27.4233C46.4362 28.2938 45.6667 28.8389 45.6667 29.9166C45.6667 30.995 46.4362 31.54 47.7956 32.4105C49.224 33.3242 51 34.4613 51 36.7446C51 39.0268 49.2227 40.1634 47.7956 41.0764C46.4362 41.9464 45.6667 42.4909 45.6667 43.5681C45.6667 44.6431 46.4362 45.187 47.7956 46.0558C49.2227 46.9684 51 48.1044 51 50.3854C51 52.6676 49.2227 53.8036 47.7956 54.7167C46.4362 55.5861 45.6667 56.13 45.6667 57.2061C45.6667 58.2817 46.4362 58.8262 47.7956 59.695C49.2227 60.6081 51 61.7436 51 64.0252C51 66.3067 49.2227 67.4428 47.7956 68.3559C46.4362 69.2247 45.6667 69.7692 45.6667 70.8447C45.6667 70.9954 45.6323 71.1446 45.5653 71.2838C45.4983 71.423 45.4001 71.5495 45.2762 71.656C45.1524 71.7625 45.0054 71.8471 44.8436 71.9047C44.6818 71.9624 44.5084 71.992 44.3333 71.992Z" fill="white"/>
<path d="M1120 146.613C1118.81 146.613 1117.65 146.293 1116.67 145.693C1115.68 145.093 1114.91 144.241 1114.46 143.243C1114 142.245 1113.88 141.147 1114.12 140.088C1114.35 139.029 1114.92 138.056 1115.76 137.293C1116.6 136.529 1117.67 136.009 1118.83 135.798C1119.99 135.588 1121.2 135.696 1122.3 136.109C1123.39 136.522 1124.33 137.222 1124.99 138.12C1125.65 139.018 1126 140.074 1126 141.153C1126 142.601 1125.37 143.989 1124.24 145.012C1123.12 146.036 1121.59 146.612 1120 146.613ZM1120 138.038C1119.32 138.038 1118.66 138.22 1118.1 138.563C1117.53 138.905 1117.1 139.392 1116.84 139.961C1116.58 140.53 1116.51 141.157 1116.64 141.761C1116.77 142.366 1117.1 142.921 1117.58 143.357C1118.06 143.792 1118.67 144.089 1119.33 144.209C1120 144.33 1120.68 144.268 1121.31 144.032C1121.94 143.796 1122.47 143.397 1122.85 142.884C1123.22 142.372 1123.42 141.77 1123.42 141.153C1123.42 140.327 1123.06 139.535 1122.42 138.951C1121.78 138.367 1120.91 138.039 1120 138.038Z" fill="white"/>
<path d="M167 238.524C165.813 238.524 164.653 238.203 163.667 237.603C162.68 237.003 161.911 236.151 161.457 235.153C161.003 234.155 160.884 233.057 161.115 231.998C161.347 230.939 161.918 229.966 162.757 229.203C163.596 228.439 164.666 227.919 165.829 227.708C166.993 227.498 168.2 227.606 169.296 228.019C170.392 228.432 171.33 229.132 171.989 230.03C172.648 230.928 173 231.984 173 233.064C172.998 234.511 172.365 235.899 171.241 236.923C170.116 237.946 168.591 238.522 167 238.524ZM167 229.948C166.323 229.948 165.661 230.131 165.098 230.473C164.535 230.815 164.096 231.302 163.837 231.871C163.578 232.441 163.51 233.067 163.642 233.671C163.774 234.276 164.1 234.831 164.579 235.267C165.058 235.702 165.668 235.999 166.332 236.119C166.996 236.24 167.685 236.178 168.31 235.942C168.936 235.706 169.471 235.307 169.847 234.795C170.223 234.282 170.424 233.68 170.424 233.064C170.423 232.238 170.062 231.446 169.42 230.861C168.778 230.277 167.908 229.949 167 229.948Z" fill="white"/>
<path d="M7.90464 254.904L11.6037 251.538C11.7292 251.424 11.8287 251.289 11.8967 251.14C11.9647 250.991 11.9998 250.832 12 250.671C12.0002 250.509 11.9654 250.35 11.8976 250.201C11.8299 250.052 11.7306 249.917 11.6053 249.803C11.4801 249.689 11.3314 249.598 11.1677 249.537C11.004 249.475 10.8286 249.443 10.6514 249.443C10.4743 249.444 10.2989 249.475 10.1354 249.537C9.97181 249.599 9.82324 249.69 9.6982 249.804L5.99918 253.17L2.30011 249.804C2.175 249.69 2.02645 249.6 1.86298 249.538C1.69951 249.477 1.52428 249.445 1.34734 249.445C1.1704 249.445 0.995216 249.477 0.831747 249.538C0.668277 249.6 0.519727 249.69 0.394613 249.804C0.269499 249.918 0.170271 250.053 0.10256 250.202C0.034849 250.351 -6.38746e-07 250.51 0 250.671C6.38764e-07 250.832 0.0348478 250.991 0.10256 251.14C0.170272 251.289 0.269539 251.424 0.394654 251.538L4.09368 254.904L0.394654 258.27C0.26954 258.384 0.170271 258.519 0.10256 258.668C0.0348486 258.817 1.37087e-08 258.976 0 259.137C-1.36914e-08 259.298 0.0348487 259.458 0.10256 259.607C0.170271 259.755 0.26954 259.891 0.394654 260.004C0.519768 260.118 0.668277 260.208 0.831747 260.27C0.995216 260.332 1.17045 260.363 1.34738 260.363C1.52432 260.363 1.69951 260.332 1.86298 260.27C2.02645 260.208 2.175 260.118 2.30011 260.004L5.99918 256.638L9.6982 260.004C9.82331 260.118 9.97186 260.208 10.1353 260.27C10.2988 260.332 10.474 260.363 10.6509 260.363C10.8279 260.363 11.0031 260.332 11.1666 260.27C11.33 260.208 11.4785 260.118 11.6037 260.004C11.7288 259.891 11.828 259.755 11.8958 259.607C11.9635 259.458 11.9983 259.298 11.9983 259.137C11.9983 258.976 11.9635 258.817 11.8958 258.668C11.828 258.519 11.7288 258.384 11.6037 258.27L7.90464 254.904Z" fill="white"/>
<path d="M1178.9 31.0429L1182.6 27.6768C1182.73 27.563 1182.83 27.4277 1182.9 27.2789C1182.96 27.13 1183 26.9705 1183 26.8093C1183 26.6481 1182.97 26.4884 1182.9 26.3394C1182.83 26.1905 1182.73 26.0553 1182.61 25.9413C1182.48 25.8273 1182.33 25.7369 1182.17 25.6753C1182 25.6137 1181.83 25.5819 1181.65 25.582C1181.47 25.5822 1181.3 25.6142 1181.14 25.676C1180.97 25.7379 1180.82 25.8286 1180.7 25.9428L1177 29.3089L1173.3 25.9428C1173.17 25.8289 1173.03 25.7386 1172.86 25.6769C1172.7 25.6153 1172.52 25.5835 1172.35 25.5835C1172.17 25.5835 1172 25.6153 1171.83 25.6769C1171.67 25.7386 1171.52 25.8289 1171.39 25.9428C1171.27 26.0566 1171.17 26.1917 1171.1 26.3405C1171.03 26.4893 1171 26.6487 1171 26.8098C1171 26.9708 1171.03 27.1301 1171.1 27.2789C1171.17 27.4276 1171.27 27.5629 1171.39 27.6768L1175.09 31.0429L1171.39 34.4091C1171.27 34.5229 1171.17 34.658 1171.1 34.8068C1171.03 34.9555 1171 35.115 1171 35.2761C1171 35.4371 1171.03 35.5964 1171.1 35.7452C1171.17 35.8939 1171.27 36.0292 1171.39 36.143C1171.52 36.2569 1171.67 36.3471 1171.83 36.4087C1172 36.4704 1172.17 36.5021 1172.35 36.5021C1172.52 36.5021 1172.7 36.4704 1172.86 36.4087C1173.03 36.3471 1173.17 36.2569 1173.3 36.143L1177 32.7769L1180.7 36.143C1180.82 36.2569 1180.97 36.3471 1181.14 36.4087C1181.3 36.4704 1181.47 36.5021 1181.65 36.5021C1181.83 36.5021 1182 36.4704 1182.17 36.4087C1182.33 36.3471 1182.48 36.2569 1182.6 36.143C1182.73 36.0292 1182.83 35.8939 1182.9 35.7452C1182.96 35.5964 1183 35.4371 1183 35.2761C1183 35.115 1182.96 34.9555 1182.9 34.8068C1182.83 34.658 1182.73 34.5229 1182.6 34.4091L1178.9 31.0429Z" fill="white"/>
<path d="M1200.9 454.197L1204.6 450.831C1204.73 450.717 1204.83 450.582 1204.9 450.433C1204.96 450.284 1205 450.125 1205 449.964C1205 449.802 1204.97 449.643 1204.9 449.494C1204.83 449.345 1204.73 449.21 1204.61 449.096C1204.48 448.982 1204.33 448.891 1204.17 448.83C1204 448.768 1203.83 448.736 1203.65 448.736C1203.47 448.736 1203.3 448.768 1203.14 448.83C1202.97 448.892 1202.82 448.983 1202.7 449.097L1199 452.463L1195.3 449.097C1195.17 448.983 1195.03 448.893 1194.86 448.831C1194.7 448.77 1194.52 448.738 1194.35 448.738C1194.17 448.738 1194 448.77 1193.83 448.831C1193.67 448.893 1193.52 448.983 1193.39 449.097C1193.27 449.211 1193.17 449.346 1193.1 449.495C1193.03 449.644 1193 449.803 1193 449.964C1193 450.125 1193.03 450.284 1193.1 450.433C1193.17 450.582 1193.27 450.717 1193.39 450.831L1197.09 454.197L1193.39 457.563C1193.27 457.677 1193.17 457.812 1193.1 457.961C1193.03 458.11 1193 458.269 1193 458.43C1193 458.591 1193.03 458.751 1193.1 458.9C1193.17 459.048 1193.27 459.184 1193.39 459.297C1193.52 459.411 1193.67 459.501 1193.83 459.563C1194 459.625 1194.17 459.656 1194.35 459.656C1194.52 459.656 1194.7 459.625 1194.86 459.563C1195.03 459.501 1195.17 459.411 1195.3 459.297L1199 455.931L1202.7 459.297C1202.82 459.411 1202.97 459.501 1203.14 459.563C1203.3 459.625 1203.47 459.656 1203.65 459.656C1203.83 459.656 1204 459.625 1204.17 459.563C1204.33 459.501 1204.48 459.411 1204.6 459.297C1204.73 459.184 1204.83 459.048 1204.9 458.9C1204.96 458.751 1205 458.591 1205 458.43C1205 458.269 1204.96 458.11 1204.9 457.961C1204.83 457.812 1204.73 457.677 1204.6 457.563L1200.9 454.197Z" fill="white"/>
<path d="M1264.9 280.385L1268.6 277.019C1268.73 276.905 1268.83 276.77 1268.9 276.621C1268.96 276.472 1269 276.312 1269 276.151C1269 275.99 1268.97 275.83 1268.9 275.681C1268.83 275.532 1268.73 275.397 1268.61 275.283C1268.48 275.169 1268.33 275.079 1268.17 275.017C1268 274.955 1267.83 274.924 1267.65 274.924C1267.47 274.924 1267.3 274.956 1267.14 275.018C1266.97 275.08 1266.82 275.17 1266.7 275.285L1263 278.651L1259.3 275.285C1259.17 275.171 1259.03 275.08 1258.86 275.019C1258.7 274.957 1258.52 274.925 1258.35 274.925C1258.17 274.925 1258 274.957 1257.83 275.019C1257.67 275.08 1257.52 275.171 1257.39 275.285C1257.27 275.398 1257.17 275.534 1257.1 275.682C1257.03 275.831 1257 275.991 1257 276.152C1257 276.313 1257.03 276.472 1257.1 276.621C1257.17 276.769 1257.27 276.905 1257.39 277.019L1261.09 280.385L1257.39 283.751C1257.27 283.865 1257.17 284 1257.1 284.149C1257.03 284.297 1257 284.457 1257 284.618C1257 284.779 1257.03 284.938 1257.1 285.087C1257.17 285.236 1257.27 285.371 1257.39 285.485C1257.52 285.599 1257.67 285.689 1257.83 285.751C1258 285.812 1258.17 285.844 1258.35 285.844C1258.52 285.844 1258.7 285.812 1258.86 285.751C1259.03 285.689 1259.17 285.599 1259.3 285.485L1263 282.119L1266.7 285.485C1266.82 285.599 1266.97 285.689 1267.14 285.751C1267.3 285.812 1267.47 285.844 1267.65 285.844C1267.83 285.844 1268 285.812 1268.17 285.751C1268.33 285.689 1268.48 285.599 1268.6 285.485C1268.73 285.371 1268.83 285.236 1268.9 285.087C1268.96 284.938 1269 284.779 1269 284.618C1269 284.457 1268.96 284.297 1268.9 284.149C1268.83 284 1268.73 283.865 1268.6 283.751L1264.9 280.385Z" fill="white"/>
<path d="M129.074 95.3468H116.084C115.869 95.3468 115.66 95.2889 115.482 95.1805C115.303 95.0721 115.165 94.9181 115.082 94.7379C115 94.5577 114.979 94.3594 115.021 94.168C115.063 93.9767 115.166 93.801 115.317 93.6631L121.813 87.7519C121.914 87.6603 122.033 87.5876 122.165 87.538C122.296 87.4884 122.437 87.4629 122.579 87.4629C122.722 87.4629 122.863 87.4884 122.994 87.538C123.126 87.5876 123.245 87.6603 123.346 87.7519L129.84 93.6631C129.992 93.801 130.095 93.9767 130.137 94.168C130.179 94.3594 130.157 94.5577 130.075 94.7379C129.993 94.9181 129.854 95.0721 129.676 95.1805C129.498 95.2889 129.288 95.3468 129.074 95.3468ZM118.7 93.3741H126.458L122.579 89.844L118.7 93.3741Z" fill="white"/>
<path d="M129.074 109.606H116.084C115.869 109.606 115.66 109.548 115.482 109.44C115.303 109.331 115.165 109.177 115.082 108.997C115 108.817 114.979 108.619 115.021 108.427C115.063 108.236 115.166 108.06 115.318 107.922L121.813 102.012C121.914 101.92 122.033 101.847 122.165 101.798C122.296 101.748 122.437 101.723 122.58 101.723C122.722 101.723 122.863 101.748 122.994 101.798C123.126 101.847 123.245 101.92 123.346 102.012L129.84 107.922C129.992 108.06 130.095 108.236 130.137 108.427C130.179 108.619 130.157 108.817 130.075 108.997C129.993 109.177 129.855 109.331 129.676 109.44C129.498 109.548 129.289 109.606 129.074 109.606ZM118.7 107.633H126.458L122.58 104.104L118.7 107.633Z" fill="white"/>
<path d="M129.074 123.864H116.084C115.869 123.864 115.66 123.806 115.482 123.697C115.303 123.589 115.165 123.435 115.082 123.255C115 123.075 114.979 122.876 115.021 122.685C115.063 122.494 115.166 122.318 115.317 122.18L121.813 116.269C121.914 116.178 122.033 116.105 122.165 116.056C122.296 116.006 122.437 115.98 122.579 115.98C122.722 115.98 122.863 116.006 122.994 116.056C123.126 116.105 123.245 116.178 123.346 116.269L129.84 122.18C129.992 122.318 130.095 122.494 130.137 122.685C130.179 122.876 130.157 123.075 130.075 123.255C129.993 123.435 129.854 123.589 129.676 123.697C129.498 123.806 129.288 123.864 129.074 123.864ZM118.7 121.891H126.458L122.579 118.361L118.7 121.891Z" fill="white"/>
</svg>
