<svg width="21" height="20" viewBox="0 0 21 20" fill="none" xmlns="http://www.w3.org/2000/svg">
<path d="M3.07138 0C1.81951 0 0.804688 0.988409 0.804688 2.20768C0.804688 3.42695 1.81951 4.41537 3.07138 4.41537C4.32323 4.41537 5.33806 3.42695 5.33806 2.20768C5.33806 0.988409 4.32323 0 3.07138 0Z" fill="white"/>
<path d="M0.938022 6.23242C0.864379 6.23242 0.804688 6.29056 0.804688 6.36229V19.8689C0.804688 19.9406 0.864379 19.9987 0.938022 19.9987H5.20473C5.27837 19.9987 5.33806 19.9406 5.33806 19.8689V6.36229C5.33806 6.29056 5.27837 6.23242 5.20473 6.23242H0.938022Z" fill="white"/>
<path d="M7.86966 6.23242C7.79602 6.23242 7.73633 6.29056 7.73633 6.36229V19.8689C7.73633 19.9406 7.79602 19.9987 7.86966 19.9987H12.1363C12.2099 19.9987 12.2697 19.9406 12.2697 19.8689V12.5961C12.2697 12.0794 12.4803 11.5839 12.8555 11.2186C13.2305 10.8532 13.7392 10.648 14.2697 10.648C14.8001 10.648 15.3088 10.8532 15.6839 11.2186C16.059 11.5839 16.2697 12.0794 16.2697 12.5961V19.8689C16.2697 19.9406 16.3294 19.9987 16.403 19.9987H20.6697C20.7433 19.9987 20.803 19.9406 20.803 19.8689V10.9132C20.803 8.39192 18.5517 6.41943 15.9761 6.64749C15.1819 6.71782 14.3966 6.91015 13.6633 7.21626L12.2697 7.798V6.36229C12.2697 6.29056 12.2099 6.23242 12.1363 6.23242H7.86966Z" fill="white"/>
</svg>
