<svg width="107" height="36" viewBox="0 0 107 36" fill="none" xmlns="http://www.w3.org/2000/svg">
<path fill-rule="evenodd" clip-rule="evenodd" d="M47.2234 21.3124C46.2355 20.7896 44.8897 20.3802 43.1864 20.0845C41.9599 19.8573 41.0058 19.6015 40.3246 19.3168C39.6432 19.0328 39.1716 18.7087 38.9106 18.3446C38.6494 17.9813 38.5187 17.5489 38.5187 17.0484C38.5187 16.321 38.8877 15.7298 39.6261 15.2747C40.3639 14.8198 41.3126 14.5926 42.4709 14.5926C43.4019 14.5926 44.2308 14.7288 44.9579 15.0016C45.6845 15.2747 46.3317 15.7181 46.8998 16.332C47.1723 16.628 47.5071 16.8098 47.9048 16.8779C48.3019 16.946 48.6596 16.8896 48.9779 16.7073C49.2957 16.4803 49.4773 16.1902 49.5231 15.8376C49.5684 15.485 49.4548 15.15 49.1824 14.8311C48.501 13.967 47.6034 13.2791 46.4909 12.7674C45.3779 12.2557 44.0604 12 42.5389 12C41.335 12 40.2164 12.1935 39.1833 12.58C38.1495 12.9668 37.3148 13.5466 36.6792 14.3196C36.0432 15.0929 35.7254 16.0592 35.7254 17.219C35.7254 18.4927 36.2535 19.5844 37.3095 20.4937C38.3657 21.4036 40.0402 22.0517 42.3345 22.4382C44.1062 22.734 45.3608 23.1432 46.0992 23.6661C46.837 24.1895 47.1947 24.8378 47.1723 25.6107C47.1494 26.3837 46.7746 27.0379 46.0481 27.5718C45.3209 28.1064 44.1742 28.3736 42.6072 28.3736C41.5393 28.3736 40.5629 28.1979 39.6773 27.8449C38.7914 27.4925 38.11 27.032 37.6331 26.4633C37.3606 26.1904 37.037 26.0257 36.6622 25.9689C36.2874 25.9122 35.9179 26.0199 35.555 26.2927C35.2365 26.5657 35.0552 26.8956 35.0098 27.2819C34.9641 27.6689 35.0781 28.01 35.3505 28.3053C36.1453 29.1698 37.2073 29.835 38.5358 30.3009C39.8647 30.7672 41.2444 31 42.6754 31C44.1513 31 45.44 30.7616 46.542 30.2838C47.6436 29.8063 48.4954 29.1582 49.0973 28.3395C49.6988 27.5208 50 26.5887 50 25.5423C50 24.6785 49.7839 23.8879 49.3527 23.1715C48.9211 22.4551 48.2114 21.8357 47.2234 21.3124Z" fill="white"/>
<path fill-rule="evenodd" clip-rule="evenodd" d="M67.2686 25.0306C66.698 26.0767 65.9104 26.8956 64.9063 27.4868C63.9018 28.0783 62.7721 28.3736 61.5173 28.3736C60.2617 28.3736 59.132 28.0783 58.1279 27.4868C57.1234 26.8956 56.3248 26.0767 55.7314 25.0306C55.1378 23.9849 54.8415 22.8132 54.8415 21.517C54.8415 20.1984 55.1378 19.0217 55.7314 17.9864C56.3248 16.952 57.1234 16.1331 58.1279 15.5306C59.132 14.9281 60.2617 14.6266 61.5173 14.6266C62.7721 14.6266 63.9018 14.9281 64.9063 15.5306C65.9104 16.1331 66.698 16.952 67.2686 17.9864C67.8387 19.0217 68.1245 20.1984 68.1245 21.517C68.1245 22.8132 67.8387 23.9849 67.2686 25.0306ZM66.3272 13.245C64.9005 12.4151 63.2974 12 61.5173 12C59.7139 12 58.0937 12.4151 56.6559 13.245C55.2179 14.0753 54.0826 15.2064 53.2495 16.639C52.4163 18.0718 52 19.6981 52 21.517C52 23.3137 52.399 24.9283 53.1983 26.3609C53.9969 27.7936 55.081 28.9253 56.4504 29.7549C57.8199 30.5855 59.3715 30.9968 61.1063 30.9999C64.0328 31.006 65.4582 30.4406 67.1838 28.9895C67.5281 28.6999 68.0559 28.9477 68.0559 29.397C68.0559 29.8293 68.193 30.1761 68.4668 30.4374C68.7406 30.699 69.0942 30.8296 69.5282 30.8296C69.9389 30.8296 70.2864 30.699 70.5722 30.4374C70.8575 30.1761 71 29.8293 71 29.397V21.517C70.9772 19.6981 70.5492 18.0718 69.7165 16.639C68.8829 15.2064 67.7532 14.0753 66.3272 13.245Z" fill="white"/>
<path fill-rule="evenodd" clip-rule="evenodd" d="M98.6697 13.1638C97.6179 12.5538 96.414 12.2482 95.0588 12.2482C93.5865 12.2482 92.2719 12.5652 91.1151 13.1978C90.1663 13.7172 89.3892 14.4101 88.7785 15.2711C86.4838 12.3422 84.7143 12 81.941 12C80.586 12 79.3821 12.3051 78.3303 12.9157C77.2786 13.526 76.4608 14.4023 75.8762 15.5434C75.2924 16.6853 75 18.0359 75 19.5956V29.3273C75 29.7571 75.1346 30.102 75.403 30.3618C75.6718 30.6218 76.0287 30.7516 76.4723 30.7516C76.9167 30.7516 77.2786 30.6218 77.5589 30.3618C77.8395 30.102 77.9797 29.7571 77.9797 29.3273V19.5956C77.9797 18.8508 78.0742 18.1881 78.2606 17.6057C78.4797 17.1142 78.7851 16.6733 79.1781 16.2835C80.0659 15.402 81.1992 14.9612 82.5787 14.9612C83.8637 14.9612 84.9152 15.385 85.7337 16.2325C86.5515 17.0803 86.9607 18.2841 86.9607 19.8438V29.5759C86.9607 30.0057 87.1064 30.3506 87.3988 30.6102C87.6907 30.8702 88.0476 31 88.4681 31C88.912 31 89.2744 30.8702 89.555 30.6102C89.8354 30.3506 89.9755 30.0057 89.9755 29.5759V19.8438C89.952 18.3746 90.3788 17.1938 91.2552 16.3004C92.1315 15.4078 93.2587 14.9612 94.638 14.9612C95.9232 14.9612 96.975 15.385 97.7932 16.2325C98.611 17.0803 99.0203 18.2841 99.0203 19.8438V29.5759C99.0203 30.0057 99.1605 30.3506 99.4411 30.6102C99.7214 30.8702 100.084 31 100.528 31C100.971 31 101.328 30.8702 101.597 30.6102C101.865 30.3506 102 30.0057 102 29.5759V19.8438C102 18.2841 101.708 16.9337 101.124 15.792C100.539 14.6505 99.7214 13.7741 98.6697 13.1638Z" fill="white"/>
<path fill-rule="evenodd" clip-rule="evenodd" d="M105.518 14C105.071 14 104.706 14.1295 104.423 14.3873C104.141 14.6454 104 14.999 104 15.4477V29.5523C104 29.9791 104.141 30.3268 104.423 30.5961C104.706 30.8656 105.071 31 105.518 31C105.964 31 106.323 30.8656 106.594 30.5961C106.864 30.3268 107 29.9791 107 29.5523V15.4477C107 14.999 106.864 14.6454 106.594 14.3873C106.323 14.1295 105.964 14 105.518 14Z" fill="white"/>
<path fill-rule="evenodd" clip-rule="evenodd" d="M27.8736 6.64624C27.4722 4.29479 26.1582 2.20267 24.1736 0.754692L23.5675 0.312616L23.5677 0.312849C22.8673 -0.198134 21.8623 -0.0696321 21.3274 0.599418C20.7925 1.26847 20.9273 2.22851 21.6276 2.73949L22.3824 3.29005C25.0803 5.25833 25.6311 8.97535 23.6121 11.5801C23.2468 12.0105 23.217 12.4223 23.2568 12.6931C23.3296 13.1896 23.683 13.5828 23.9635 13.7683C23.9713 13.7732 23.9793 13.7784 23.9874 13.7828C24.2793 13.9506 24.5859 14.0111 24.8788 13.9983C25.472 13.9727 26.0096 13.6459 26.2577 13.2967C27.7042 11.3776 28.2781 9.01632 27.8736 6.64624Z" fill="white"/>
<mask id="mask0_5293:100686" style="mask-type:alpha" maskUnits="userSpaceOnUse" x="0" y="21" width="7" height="15">
<path fill-rule="evenodd" clip-rule="evenodd" d="M0 21.0635H6.93329V35.9997H0V21.0635Z" fill="white"/>
</mask>
<g mask="url(#mask0_5293:100686)">
<path fill-rule="evenodd" clip-rule="evenodd" d="M6.31093 33.1528L5.56314 32.5806C3.08297 30.6819 2.4018 27.2176 3.978 24.5218C4.14528 24.236 4.33766 23.96 4.54959 23.7026C4.84962 23.3401 4.99928 22.8647 4.95028 22.4307C4.90297 22.0143 4.68331 21.6451 4.31449 21.3628C3.58504 20.8042 2.62193 21.0923 2.11238 21.6943C1.94776 21.8881 1.81887 22.0499 1.72883 22.175C1.53018 22.4513 1.34528 22.7404 1.17945 23.0348C-1.1052 27.0911 0.0164857 32.3276 3.78924 35.2153L4.38931 35.6745C4.69635 35.9097 5.06204 36.0144 5.42049 35.9982C5.87235 35.9774 6.31262 35.7643 6.60807 35.3764C6.8649 35.0399 6.97521 34.6228 6.91897 34.2028C6.86297 33.7828 6.64693 33.4097 6.31093 33.1528Z" fill="white"/>
</g>
<path fill-rule="evenodd" clip-rule="evenodd" d="M19.4199 15.1347L13.0558 10.3047C12.4005 9.80707 11.4602 9.93216 10.9597 10.5837C10.4592 11.2347 10.5853 12.1693 11.2404 12.6664L17.7438 17.6027C19.0428 18.5882 19.8707 20.085 20.0152 21.7085C20.1618 23.353 19.6221 24.9313 18.4953 26.1534C16.4776 28.3418 12.9783 28.5997 10.5288 26.741L10.4025 26.6449C10.0851 26.4038 9.69174 26.301 9.29637 26.3531C8.90031 26.4056 8.54872 26.6087 8.30634 26.9239C7.80585 27.5752 7.93194 28.5097 8.58725 29.0071L8.83578 29.1957C10.5028 30.4611 12.5132 31.084 14.5785 30.9909C14.8818 30.9771 15.1866 30.9481 15.4912 30.9032C17.8705 30.5533 19.9566 29.2913 21.366 27.349C22.7222 25.4797 23.2605 23.1789 22.8818 20.8698C22.5063 18.5808 21.2768 16.5442 19.4199 15.1347Z" fill="white"/>
<path fill-rule="evenodd" clip-rule="evenodd" d="M13.7541 23.9984C13.7972 23.9963 13.8407 23.9923 13.884 23.986C14.2695 23.9316 14.6119 23.7219 14.848 23.3956C15.3354 22.7221 15.2126 21.7559 14.5746 21.2412L9.1323 16.8553C7.87986 15.8457 7.09798 14.3759 6.93032 12.7169C6.76267 11.0598 7.23522 9.44817 8.2607 8.17915C10.2197 5.75455 13.6728 5.40091 16.1215 7.37416L18.6595 9.42005C18.9686 9.66917 19.3516 9.7765 19.7369 9.72189C20.1224 9.66729 20.4648 9.45754 20.7009 9.13133C20.9369 8.80511 21.0384 8.40109 20.9869 7.99425C20.9352 7.58742 20.7364 7.22604 20.4273 6.97693L17.8081 4.86588C15.9383 3.35923 13.6271 2.73305 11.3007 3.10449C8.97508 3.475 6.94121 4.79511 5.57396 6.82108C4.27112 8.75168 3.75172 11.1163 4.11101 13.4788C4.46831 15.8284 5.6528 17.9188 7.4464 19.3641L12.8066 23.6841C13.081 23.9056 13.4132 24.0148 13.7541 23.9984Z" fill="white"/>
</svg>
