<svg width="92" height="31" viewBox="0 0 92 31" fill="none" xmlns="http://www.w3.org/2000/svg">
<path fill-rule="evenodd" clip-rule="evenodd" d="M40.8307 18.2556C39.9502 17.7965 38.7509 17.4369 37.233 17.1771C36.1399 16.9776 35.2899 16.7529 34.6826 16.5029C34.0754 16.2534 33.6552 15.9687 33.4225 15.649C33.1897 15.3298 33.0735 14.95 33.0735 14.5104C33.0735 13.8715 33.4021 13.3522 34.0602 12.9525C34.7176 12.553 35.5631 12.3534 36.5954 12.3534C37.425 12.3534 38.1637 12.473 38.8117 12.7127C39.4592 12.9525 40.036 13.3419 40.5423 13.8812C40.7851 14.1411 41.0835 14.3008 41.4379 14.3606C41.7918 14.4204 42.1106 14.3709 42.3942 14.2108C42.6774 14.0115 42.8392 13.7566 42.88 13.4469C42.9205 13.1372 42.8192 12.8429 42.5764 12.5628C41.9692 11.8039 41.1693 11.1997 40.1778 10.7502C39.186 10.3008 38.0119 10.0762 36.656 10.0762C35.5831 10.0762 34.5862 10.2461 33.6656 10.5856C32.7443 10.9253 32.0004 11.4346 31.434 12.1136C30.8671 12.7928 30.5839 13.6416 30.5839 14.6603C30.5839 15.779 31.0546 16.7379 31.9956 17.5366C32.9369 18.3358 34.4292 18.905 36.4738 19.2445C38.0527 19.5043 39.1708 19.8637 39.8288 20.3231C40.4863 20.7828 40.8051 21.3522 40.7851 22.031C40.7647 22.7101 40.4309 23.2846 39.7832 23.7536C39.1352 24.2232 38.1135 24.4579 36.7168 24.4579C35.7651 24.4579 34.895 24.3035 34.1058 23.9935C33.3163 23.684 32.7093 23.2795 32.284 22.7799C32.0412 22.5403 31.7528 22.3956 31.4188 22.3457C31.0848 22.2959 30.7555 22.3905 30.4321 22.6301C30.1483 22.8699 29.9867 23.1597 29.9463 23.499C29.9055 23.8389 30.0071 24.1385 30.2499 24.3979C30.9581 25.1572 31.9046 25.7415 33.0885 26.1507C34.2728 26.5603 35.5023 26.7648 36.7776 26.7648C38.0929 26.7648 39.2416 26.5553 40.2234 26.1357C41.2051 25.7162 41.9642 25.147 42.5006 24.4279C43.0367 23.7088 43.3051 22.8901 43.3051 21.971C43.3051 21.2123 43.1127 20.5179 42.7282 19.8886C42.3436 19.2594 41.7112 18.7154 40.8307 18.2556Z" fill="#0F3041"/>
<path fill-rule="evenodd" clip-rule="evenodd" d="M57.8764 21.5212C57.3792 22.44 56.6934 23.1593 55.8188 23.6786C54.9438 24.1981 53.9597 24.4575 52.8667 24.4575C51.773 24.4575 50.7888 24.1981 49.9144 23.6786C49.0394 23.1593 48.3438 22.44 47.8269 21.5212C47.3096 20.6027 47.0515 19.5736 47.0515 18.435C47.0515 17.2768 47.3096 16.2433 47.8269 15.3339C48.3438 14.4254 49.0394 13.7061 49.9144 13.1769C50.7888 12.6477 51.773 12.3828 52.8667 12.3828C53.9597 12.3828 54.9438 12.6477 55.8188 13.1769C56.6934 13.7061 57.3792 14.4254 57.8764 15.3339C58.3731 16.2433 58.6218 17.2768 58.6218 18.435C58.6218 19.5736 58.3731 20.6027 57.8764 21.5212ZM57.0541 11.1697C55.8115 10.4407 54.4151 10.0762 52.8645 10.0762C51.2937 10.0762 49.8824 10.4407 48.63 11.1697C47.3774 11.899 46.3883 12.8925 45.6628 14.1508C44.9369 15.4093 44.5742 16.8378 44.5742 18.4354C44.5742 20.0135 44.9219 21.4318 45.618 22.6901C46.3136 23.9484 47.2582 24.9424 48.451 25.6712C49.6439 26.4007 50.9955 26.7619 52.5066 26.7647C55.0557 26.77 56.2973 26.2734 57.8002 24.9989C58.1004 24.7445 58.5601 24.9622 58.5601 25.3568C58.5601 25.7365 58.6793 26.0411 58.9178 26.2707C59.1565 26.5004 59.4643 26.6151 59.8423 26.6151C60.2002 26.6151 60.503 26.5004 60.7519 26.2707C61.0002 26.0411 61.1246 25.7365 61.1246 25.3568V18.4354C61.1045 16.8378 60.7318 15.4093 60.0064 14.1508C59.2805 12.8925 58.2962 11.899 57.0541 11.1697Z" fill="#0F3041"/>
<path fill-rule="evenodd" clip-rule="evenodd" d="M84.0402 10.784C83.1351 10.2481 82.0991 9.97971 80.9329 9.97971C79.666 9.97971 78.5347 10.2581 77.5393 10.8138C76.7228 11.27 76.0541 11.8786 75.5286 12.6348C73.554 10.0623 72.0314 9.76172 69.6448 9.76172C68.4788 9.76172 67.4427 10.0297 66.5377 10.566C65.6326 11.102 64.9289 11.8718 64.4259 12.874C63.9235 13.8771 63.6719 15.0634 63.6719 16.4333V24.9811C63.6719 25.3586 63.7877 25.6615 64.0187 25.8897C64.25 26.1181 64.5571 26.2321 64.9388 26.2321C65.3212 26.2321 65.6326 26.1181 65.8739 25.8897C66.1154 25.6615 66.236 25.3586 66.236 24.9811V16.4333C66.236 15.7791 66.3173 15.197 66.4777 14.6855C66.6663 14.2538 66.9292 13.8665 67.2673 13.5241C68.0312 12.7498 69.0064 12.3627 70.1935 12.3627C71.2993 12.3627 72.2043 12.7349 72.9084 13.4793C73.6122 14.224 73.9643 15.2813 73.9643 16.6513V25.1995C73.9643 25.577 74.0898 25.8799 74.3414 26.1079C74.5926 26.3363 74.8996 26.4503 75.2615 26.4503C75.6435 26.4503 75.9553 26.3363 76.1968 26.1079C76.438 25.8799 76.5587 25.577 76.5587 25.1995V16.6513C76.5384 15.3608 76.9057 14.3236 77.6599 13.539C78.4139 12.7549 79.3841 12.3627 80.571 12.3627C81.6768 12.3627 82.5819 12.7349 83.286 13.4793C83.9897 14.224 84.3419 15.2813 84.3419 16.6513V25.1995C84.3419 25.577 84.4625 25.8799 84.704 26.1079C84.9452 26.3363 85.2569 26.4503 85.639 26.4503C86.0208 26.4503 86.3277 26.3363 86.5592 26.1079C86.7901 25.8799 86.906 25.577 86.906 25.1995V16.6513C86.906 15.2813 86.6544 14.0952 86.1518 13.0924C85.649 12.0898 84.9452 11.32 84.0402 10.784Z" fill="#0F3041"/>
<path fill-rule="evenodd" clip-rule="evenodd" d="M90.7412 11.6504C90.3617 11.6504 90.0523 11.7656 89.8125 11.9947C89.5731 12.2242 89.4531 12.5386 89.4531 12.9375V25.4775C89.4531 25.8569 89.5731 26.1661 89.8125 26.4055C90.0523 26.6451 90.3617 26.7646 90.7412 26.7646C91.1203 26.7646 91.425 26.6451 91.655 26.4055C91.8843 26.1661 91.9993 25.8569 91.9993 25.4775V12.9375C91.9993 12.5386 91.8843 12.2242 91.655 11.9947C91.425 11.7656 91.1203 11.6504 90.7412 11.6504Z" fill="#0F3041"/>
<path fill-rule="evenodd" clip-rule="evenodd" d="M24.1021 5.53087C23.7736 3.57404 22.6982 1.83302 21.0739 0.628039L20.578 0.260153V0.260346C20.0048 -0.164883 19.1823 -0.0579464 18.7445 0.498824C18.3067 1.05559 18.417 1.85452 18.9902 2.27975L19.6079 2.73792C21.816 4.37587 22.2668 7.46911 20.6143 9.63671C20.3154 9.99491 20.291 10.3376 20.3235 10.5629C20.3832 10.9761 20.6724 11.3033 20.9019 11.4577C20.9083 11.4618 20.9149 11.4661 20.9215 11.4698C21.1604 11.6094 21.4113 11.6598 21.6511 11.6491C22.1365 11.6278 22.5765 11.3558 22.7795 11.0653C23.9635 9.46817 24.4332 7.5032 24.1021 5.53087Z" fill="#C6242F"/>
<mask id="mask0_5293:100660" style="mask-type:alpha" maskUnits="userSpaceOnUse" x="0" y="18" width="6" height="13">
<path fill-rule="evenodd" clip-rule="evenodd" d="M0.0175781 18.3154H5.69192V30.5435H0.0175781V18.3154Z" fill="white"/>
</mask>
<g mask="url(#mask0_5293:100660)">
<path fill-rule="evenodd" clip-rule="evenodd" d="M5.18255 28.2128L4.57054 27.7444C2.5407 26.1899 1.98322 23.3538 3.27322 21.1467C3.41012 20.9128 3.56757 20.6868 3.74102 20.476C3.98658 20.1793 4.10906 19.7901 4.06896 19.4348C4.03024 19.0939 3.85046 18.7916 3.5488 18.5605C2.95161 18.1031 2.16338 18.339 1.74635 18.8318C1.61182 18.9905 1.50613 19.123 1.43245 19.2254C1.26986 19.4516 1.11854 19.6883 0.982822 19.9293C-0.886994 23.2502 0.031221 27.5372 3.11874 29.9013L3.60985 30.2773C3.86113 30.4698 4.16042 30.5555 4.45378 30.5423C4.8236 30.5252 5.18393 30.3507 5.42593 30.0332C5.63593 29.7577 5.72621 29.4163 5.68018 29.0724C5.63435 28.7286 5.45754 28.4231 5.18255 28.2128Z" fill="#C6242F"/>
</g>
<path fill-rule="evenodd" clip-rule="evenodd" d="M16.636 12.9674L11.0995 8.76694C10.5294 8.33417 9.71139 8.44295 9.27599 9.00954C8.84059 9.57574 8.95028 10.3885 9.52017 10.8209L15.178 15.1138C16.3079 15.9709 17.0281 17.2725 17.1539 18.6844C17.2814 20.1146 16.8119 21.4872 15.8316 22.55C14.0763 24.4532 11.0321 24.6775 8.90109 23.061L8.7912 22.9775C8.51508 22.7678 8.17291 22.6783 7.82895 22.7237C7.4844 22.7694 7.17853 22.946 6.96767 23.2201C6.53227 23.7865 6.64196 24.5992 7.21205 25.0318L7.42826 25.1958C8.87848 26.2962 10.6274 26.838 12.4242 26.757C12.688 26.745 12.9532 26.7198 13.2182 26.6807C15.2881 26.3765 17.1029 25.2789 18.329 23.5898C19.5088 21.9641 19.9771 19.9632 19.6477 17.955C19.321 15.9643 18.2514 14.1932 16.636 12.9674Z" fill="#C6242F"/>
<path fill-rule="evenodd" clip-rule="evenodd" d="M11.3301 19.836C11.3688 19.8342 11.4079 19.8309 11.4468 19.8255C11.7933 19.7799 12.101 19.6038 12.3131 19.3298C12.7511 18.7643 12.6408 17.953 12.0674 17.5209L7.17665 13.8381C6.05114 12.9904 5.34849 11.7562 5.19782 10.3632C5.04715 8.97174 5.47182 7.61848 6.39338 6.55292C8.15409 4.51703 11.257 4.22009 13.4576 5.87698L15.7383 7.59487C16.0161 7.80405 16.3604 7.89417 16.7066 7.84832C17.053 7.80247 17.3608 7.62635 17.5729 7.35244C17.785 7.07852 17.8762 6.73927 17.8299 6.39766C17.7834 6.05605 17.6048 5.75261 17.327 5.54344L14.9732 3.77084C13.2929 2.50574 11.2159 1.97995 9.12535 2.29184C7.03536 2.60295 5.2076 3.71141 3.97891 5.41258C2.8081 7.03365 2.34133 9.01916 2.66422 11.0029C2.98531 12.9758 4.04976 14.7311 5.6616 15.9446L10.4786 19.5721C10.7254 19.758 11.0238 19.8497 11.3301 19.836Z" fill="#C6242F"/>
</svg>
