<svg width="20" height="21" viewBox="0 0 20 21" fill="none" xmlns="http://www.w3.org/2000/svg">
<path d="M19.9806 3.22034C20.0401 3.12112 19.9523 2.99301 19.8573 3.03714C19.1819 3.35079 18.4759 3.56241 17.7559 3.66669C18.5576 3.09288 19.1763 2.21938 19.5194 1.18522C19.5543 1.07987 19.4583 0.985798 19.3755 1.0406C18.6303 1.53361 17.8267 1.8886 16.9919 2.09306C16.9569 2.10162 16.921 2.08737 16.8965 2.05636C16.27 1.26444 15.4453 0.737156 14.5463 0.554946C13.6284 0.368916 12.685 0.553116 11.864 1.07867C11.0429 1.60422 10.3907 2.44139 10.0095 3.45889C9.64717 4.42634 9.54945 5.50477 9.72817 6.54047C9.74201 6.62083 9.68952 6.69669 9.62113 6.69161C7.99696 6.57076 6.40997 6.05319 4.95805 5.17009C3.50983 4.28923 2.22738 3.06382 1.18883 1.56943C1.14274 1.50311 1.05538 1.51168 1.02179 1.58804C0.698635 2.3227 0.52943 3.14156 0.529892 3.97379C0.528579 4.80221 0.698266 5.61816 1.02386 6.34899C1.34945 7.07984 1.82084 7.70288 2.39604 8.16267C1.78603 8.14277 1.18792 7.96207 0.643963 7.63454C0.573859 7.59233 0.489769 7.65243 0.49342 7.74632C0.535839 8.83866 0.870567 9.93526 1.44996 10.7767C2.06652 11.672 2.92231 12.2847 3.87256 12.5112C3.50676 12.6446 3.12699 12.7149 2.74466 12.7201C2.53658 12.7171 2.32889 12.6988 2.12282 12.665C2.04641 12.6525 1.98402 12.7395 2.01076 12.8261C2.29419 13.7443 2.7949 14.5456 3.45326 15.1304C4.15712 15.7557 5.00616 16.1026 5.88226 16.1228C4.40287 17.5174 2.57638 18.2785 0.693949 18.2848C0.500515 18.2855 0.307174 18.278 0.114294 18.2623C0.00559541 18.2534 -0.0443908 18.4269 0.0492962 18.4935C1.88343 19.7975 3.9798 20.4867 6.11809 20.4836C7.69683 20.5033 9.26297 20.1458 10.7251 19.4322C12.1873 18.7185 13.5161 17.6631 14.6339 16.3273C15.7517 14.9915 16.6362 13.4023 17.2356 11.6525C17.835 9.90258 18.1373 8.02717 18.125 6.13579V5.54636C18.125 5.50758 18.1403 5.47111 18.1662 5.44773C18.8617 4.81862 19.4733 4.06753 19.9806 3.22034Z" fill="white"/>
</svg>
