<svg width="50" height="50" viewBox="0 0 50 50" fill="none" xmlns="http://www.w3.org/2000/svg">
<path d="M35.4173 43.75V39.5833C35.4173 37.3732 34.5393 35.2536 32.9765 33.6908C31.4137 32.128 29.2941 31.25 27.084 31.25H10.4173C8.20718 31.25 6.08756 32.128 4.52476 33.6908C2.96196 35.2536 2.08398 37.3732 2.08398 39.5833V43.75" stroke="current" stroke-width="4" stroke-linecap="round" stroke-linejoin="round"/>
<path d="M18.7493 22.9167C23.3517 22.9167 27.0827 19.1857 27.0827 14.5833C27.0827 9.98096 23.3517 6.25 18.7493 6.25C14.147 6.25 10.416 9.98096 10.416 14.5833C10.416 19.1857 14.147 22.9167 18.7493 22.9167Z" stroke="current" stroke-width="4" stroke-linecap="round" stroke-linejoin="round"/>
<path d="M47.916 43.7507V39.584C47.9146 37.7376 47.3001 35.9439 46.1689 34.4846C45.0376 33.0254 43.4538 31.9831 41.666 31.5215" stroke="current" stroke-width="4" stroke-linecap="round" stroke-linejoin="round"/>
<path d="M33.334 6.52148C35.1265 6.98044 36.7153 8.02294 37.8499 9.48463C38.9845 10.9463 39.6003 12.744 39.6003 14.5944C39.6003 16.4448 38.9845 18.2425 37.8499 19.7042C36.7153 21.1659 35.1265 22.2084 33.334 22.6673" stroke="current" stroke-width="4" stroke-linecap="round" stroke-linejoin="round"/>
</svg>
